Coordinates
version=1
nRows=21
nColumns=33
inDegrees=yes

Units are S.I. units (second, meters, Newtons, ...)
Angles are in degrees.

endheader
time	ground_thorax_rot_x	ground_thorax_rot_y	ground_thorax_rot_z	ground_thorax_tx	ground_thorax_ty	ground_thorax_tz	clav_prot_r	clav_elev_r	scapula_abduction_r	scapula_elevation_r	scapula_upward_rot_r	scapula_winging_r	shoulder_elv_r	plane_of_elev_r	axial_rot_r	elbow_flexion_r	pro_sup_r	wrist_flex_r	wrist_dev_r	clav_prot_l	clav_elev_l	scapula_abduction_l	scapula_elevation_l	scapula_upward_rot_l	scapula_winging_l	shoulder_elv_l	plane_of_elev_l	axial_rot_l	elbow_flexion_l	pro_sup_l	wrist_flex_l	wrist_dev_l
      4.28000000	     -0.12454726	     -0.04567639	     13.23086381	     -0.11582175	      1.02785667	      0.01365189	      7.63263522	     -9.25394438	     13.41999009	     -2.24988105	      0.05815892	     -2.45721689	    -51.60479657	    -72.52993257	     88.67279822	    -60.59484084	   -134.61585504	     56.08606184	    -24.99999983	      7.49048688	     -0.29783565	     -7.77638792	    -21.90574869	    -35.61581377	     -3.39957788	     56.45199291	    -36.92106603	     -0.10490630	     62.28843898	     30.05798363	     -8.61391173	    -24.99999983
      4.29000000	      0.06523710	     -0.08751087	     13.37868941	     -0.11607261	      1.02816929	      0.01364757	      7.56213926	     -9.61807508	     12.77668172	     -2.09355558	     -1.10714525	     -2.01049254	    -51.16626961	    -73.66731230	     88.86550828	    -62.02389003	   -135.56593256	     55.04240098	    -24.99999983	      7.63267512	     -0.78366644	     -8.31335253	    -21.94060564	    -36.71866732	     -3.32784182	     56.82040658	    -36.53056794	      0.52971550	     62.57480208	     29.40773691	     -9.18186051	    -24.99999983
      4.30000000	     -0.01900085	     -0.01623721	     13.33327639	     -0.11571491	      1.02811917	      0.01381991	      7.48803692	     -9.53424750	     12.68937928	     -2.05501684	     -1.01247226	     -2.01930003	    -51.13223262	    -73.53717217	     88.89918898	    -62.35334764	   -135.66137165	     55.02860482	    -24.99999983	      7.63081016	     -0.70384797	     -8.28353612	    -21.97449884	    -36.62267802	     -3.32488287	     56.96296876	    -36.43877581	      0.72301010	     63.03759799	     29.32768993	     -9.26042915	    -24.99999983
      4.31000000	     -0.04791380	      0.02489378	     13.28551444	     -0.11553051	      1.02806112	      0.01396263	      7.44872835	     -9.48758282	     12.65465829	     -2.04605936	     -0.93373633	     -2.02786037	    -51.12394349	    -73.56249529	     88.96725879	    -62.68410614	   -135.78830276	     55.00101541	    -24.99999983	      7.65167219	     -0.65687287	     -8.30270913	    -21.99030616	    -36.55929642	     -3.31263196	     57.07569871	    -36.31628184	      0.86071136	     63.50754234	     29.24324158	     -9.32389585	    -24.99999983
      4.32000000	     -0.06854606	      0.04824415	     13.24651151	     -0.11531020	      1.02795158	      0.01414259	      7.40429042	     -9.42924263	     12.60373214	     -2.02012228	     -0.87066892	     -2.03405262	    -51.11095916	    -73.59400621	     89.03517269	    -63.08426573	   -135.96591264	     54.96050622	    -24.99999983	      7.66990014	     -0.63387444	     -8.32452426	    -21.99344576	    -36.51964629	     -3.30143703	     57.20137770	    -36.21564211	      1.04750274	     63.96878855	     29.14059425	     -9.37893980	    -24.99999983
      4.33000000	     -0.06943416	      0.05683130	     13.21204039	     -0.11512290	      1.02786276	      0.01431384	      7.37057317	     -9.38433888	     12.56094255	     -1.99606555	     -0.83043539	     -2.03746237	    -51.08684946	    -73.67737652	     89.11052781	    -63.51196563	   -136.20075018	     54.89199710	    -24.99999983	      7.69912019	     -0.63797714	     -8.37819781	    -21.98415541	    -36.51229459	     -3.27573583	     57.33720966	    -36.11379217	      1.22941050	     64.43718433	     29.01504803	     -9.41256305	    -24.99999983
      4.34000000	     -0.06762035	      0.07945835	     13.18295791	     -0.11497198	      1.02782772	      0.01447905	      7.35112925	     -9.35355973	     12.53369212	     -1.97569197	     -0.81305155	     -2.03947208	    -51.06351393	    -73.74188448	     89.18724090	    -63.95380796	   -136.43887019	     54.82842210	    -24.99999983	      7.73128237	     -0.66945089	     -8.43747538	    -21.94675360	    -36.50192244	     -3.24846634	     57.47818934	    -35.99372020	      1.39291135	     64.88835703	     28.88285955	     -9.42175054	    -24.99999983
      4.35000000	      0.04452228	      0.04972050	     13.49223158	     -0.11498845	      1.02791725	      0.01463956	      7.26671063	     -9.41901386	     12.15747631	     -1.81766167	     -1.32654978	     -1.84618921	    -50.86247886	    -74.29672369	     89.62276355	    -64.72634509	   -138.09944627	     53.92407436	    -24.99999983	      7.86978110	     -1.13294094	     -8.92074289	    -21.87788732	    -37.34339123	     -3.14444333	     57.87142742	    -36.06156729	      1.93345428	     65.53411064	     28.08075480	     -8.97668896	    -24.99999983
      4.36000000	      0.03031906	      0.13929621	     13.34791649	     -0.11492436	      1.02801832	      0.01477717	      7.28729568	     -9.43967337	     12.23037095	     -1.86934187	     -1.24894755	     -1.87187269	    -50.79238581	    -74.27719990	     89.64957623	    -65.06596364	   -138.17550063	     53.94622249	    -24.99999983	      7.93025605	     -1.12811650	     -8.99435771	    -21.79863339	    -37.17273756	     -3.08221281	     58.03737423	    -35.77471403	      1.93892143	     65.82652470	     28.01525325	     -8.95510652	    -24.99999983
      4.37000000	      0.00632703	      0.13828834	     13.22974081	     -0.11475076	      1.02792915	      0.01508907	      7.27144441	     -9.43142838	     12.26065537	     -1.91683172	     -1.12066999	     -1.89362347	    -50.70303472	    -74.20862625	     89.67542574	    -65.58188062	   -138.28881151	     53.98295490	    -24.99999983	      7.99016959	     -1.09621182	     -9.07527566	    -21.77398472	    -37.05932847	     -3.03544831	     58.20728471	    -35.59990708	      1.98993126	     66.20516148	     27.91426553	     -8.91422958	    -24.99999983
      4.38000000	     -0.02081208	      0.20241664	     13.20528158	     -0.11464187	      1.02797972	      0.01523264	      7.28955221	     -9.42504339	     12.30528647	     -1.92376428	     -1.08944344	     -1.91333585	    -50.68005189	    -74.23991350	     89.73883192	    -65.95990018	   -138.38576298	     54.00128954	    -24.99999983	      8.04081840	     -1.09472321	     -9.14177504	    -21.71333628	    -36.93515227	     -2.98550222	     58.38188154	    -35.41538848	      2.05372298	     66.56303913	     27.80732477	     -8.86092386	    -24.99999983
      4.39000000	     -0.03201585	      0.15254471	     13.12957026	     -0.11445787	      1.02783650	      0.01554797	      7.28424324	     -9.42283010	     12.35358377	     -1.97549049	     -0.96389283	     -1.93930080	    -50.59548823	    -74.24212401	     89.78227295	    -66.55005481	   -138.52767684	     54.03158278	    -24.99999983	      8.11789086	     -1.07401279	     -9.26572890	    -21.69887660	    -36.86779552	     -2.92652178	     58.55246064	    -35.29299446	      2.07394410	     66.97597410	     27.66979239	     -8.76401088	    -24.99999983
      4.40000000	     -0.03823050	      0.18273292	     13.07548087	     -0.11433795	      1.02770688	      0.01574872	      7.30332804	     -9.41857794	     12.39817086	     -1.98274134	     -0.93755410	     -1.96004832	    -50.52161758	    -74.29304429	     89.86249727	    -67.14998864	   -138.73737293	     54.01633212	    -24.99999983	      8.19840029	     -1.10531480	     -9.40420201	    -21.63713164	    -36.81139444	     -2.85766049	     58.76276946	    -35.12173166	      2.13013644	     67.44141694	     27.45036875	     -8.56838184	    -24.99999983
      4.41000000	     -0.04250462	      0.35925344	     13.20428865	     -0.11468136	      1.02814800	      0.01602969	      7.11958421	     -9.80571111	     11.72008885	     -1.97925813	     -1.78412259	     -1.51283533	    -49.31658759	    -74.72349053	     90.96740581	    -68.08276426	   -141.30297931	     52.38696316	    -24.99999983	      8.62291118	     -1.79834296	    -10.57388483	    -21.64736902	    -38.32621302	     -2.56220676	     59.74392957	    -34.61250554	      3.01310131	     68.02907396	     24.48142244	     -4.53070838	    -24.99999983
      4.42000000	     -0.07555860	      0.38190046	     13.19718957	     -0.11454813	      1.02802276	      0.01620182	      7.14357216	     -9.78935999	     11.81007004	     -2.01108735	     -1.67466648	     -1.56044323	    -49.30436798	    -74.82022976	     91.06099506	    -68.58743185	   -141.28959687	     52.49521100	    -24.99999983	      8.71165619	     -1.73620112	    -10.69089652	    -21.61971352	    -38.14597391	     -2.49021791	     59.91838064	    -34.41580618	      2.96145905	     68.33565619	     24.44212715	     -4.49969785	    -24.99999983
      4.43000000	     -0.09690274	      0.35871628	     13.17266799	     -0.11431810	      1.02792958	      0.01645898	      7.14622916	     -9.77646796	     11.88400543	     -2.06537072	     -1.51987586	     -1.60210396	    -49.23273564	    -74.83417710	     91.11441490	    -69.17971025	   -141.31541250	     52.58524625	    -24.99999983	      8.79641061	     -1.70032456	    -10.80638047	    -21.58200826	    -37.99894362	     -2.42058301	     60.07307369	    -34.22444867	      2.92895211	     68.65178990	     24.37813472	     -4.43689209	    -24.99999983
      4.44000000	     -0.12502286	      0.41063009	     13.16258330	     -0.11413222	      1.02786470	      0.01664566	      7.18145355	     -9.77755770	     11.98793259	     -2.10722638	     -1.42336352	     -1.64544857	    -49.19002836	    -74.89045865	     91.18974966	    -69.69844528	   -141.35781098	     52.63855878	    -24.99999983	      8.88254017	     -1.69810712	    -10.91986486	    -21.49361450	    -37.81503018	     -2.34226716	     60.26868001	    -33.99734339	      2.94464100	     68.93402333	     24.29654226	     -4.35518765	    -24.99999983
      4.45000000	     -0.14474303	      0.34310400	     13.13704890	     -0.11391520	      1.02785963	      0.01688830	      7.19334206	     -9.79908674	     12.09746034	     -2.20883292	     -1.23148622	     -1.68907395	    -49.07299209	    -74.90208522	     91.22656242	    -70.31931219	   -141.44159350	     52.66927632	    -24.99999983	      8.98144675	     -1.70460031	    -11.07447159	    -21.42445575	    -37.69384546	     -2.25338289	     60.42797391	    -33.80132524	      2.91308259	     69.19381668	     24.19849482	     -4.22824563	    -24.99999983
      4.46000000	     -0.02196816	      0.46335080	     13.29503288	     -0.11427124	      1.02775751	      0.01710266	      7.25773970	     -9.86205815	     11.93526207	     -2.00400203	     -1.84490635	     -1.56990507	    -47.84827375	    -75.20860052	     92.35585783	    -71.46564851	   -143.14621902	     50.66548591	    -24.99999983	      9.46355010	     -2.32795617	    -12.22941589	    -21.27210914	    -38.72155060	     -1.88066992	     60.86880673	    -33.40128800	      3.89285851	     69.80968453	     21.91296226	     -0.29543516	    -24.99999983
      4.47000000	     -0.08762693	      0.46771382	     13.28972885	     -0.11412527	      1.02780878	      0.01733181	      7.29257752	     -9.92191493	     12.08557805	     -2.14122337	     -1.65136639	     -1.61509100	    -47.79597534	    -75.24145482	     92.45963440	    -72.00298164	   -143.15208137	     50.74121839	    -24.99999983	      9.57222920	     -2.31066526	    -12.37245360	    -21.18122171	    -38.50354960	     -1.78277714	     61.07715521	    -33.12768448	      3.83816410	     69.92823788	     21.89149052	     -0.24293271	    -24.99999983
      4.48000000	     -0.11718501	      0.48239396	     13.23835109	     -0.11390486	      1.02777795	      0.01755223	      7.32154701	     -9.97635709	     12.23875034	     -2.28604794	     -1.42825820	     -1.66398852	    -47.68445625	    -75.24635330	     92.51961901	    -72.59284220	   -143.20408418	     50.77550041	    -24.99999983	      9.67806767	     -2.30952533	    -12.51390030	    -21.07700617	    -38.29061488	     -1.68693512	     61.27696638	    -32.81822765	      3.80760872	     70.11633605	     21.84115599	     -0.15634297	    -24.99999983
